<svg width="251" height="80" viewBox="0 0 251 80" fill="none" xmlns="http://www.w3.org/2000/svg">
<path d="M78.6533 40.16C78.6533 26.56 70.0133 13.92 51.1333 13.92C32.1733 13.92 23.6133 26.56 23.6133 40.16C23.6133 53.68 32.2533 66.4 51.1333 66.4C70.0133 66.4 78.6533 53.68 78.6533 40.16ZM51.1333 61.12C38.0133 61.12 32.4933 51.44 32.4933 40.16C32.4933 28.8 38.0133 19.2 51.1333 19.2C64.1733 19.2 69.7733 28.8 69.7733 40.16C69.7733 51.44 64.1733 61.12 51.1333 61.12Z" fill="#14B6F1"/>
<path d="M123.053 14.88H132.093L101.933 65.44H92.0133L123.053 14.88Z" fill="#14B6F1"/>
<path d="M123.053 14.88L154.093 65.44H144.173L113.293 14.88H123.053Z" fill="#14B6F1"/>
<path d="M158.453 65.44L171.493 45.52L159.253 25.84H171.133L177.653 35.84L184.093 25.84H195.973L183.733 45.52L196.773 65.44H184.893L177.653 54.48L170.333 65.44H158.453Z" fill="#14B6F1"/>
<dci:pgf level="1" id="0" />
<path d="M228.373 40.16C228.373 26.56 219.733 13.92 200.853 13.92C181.893 13.92 173.333 26.56 173.333 40.16C173.333 53.68 181.973 66.4 200.853 66.4C219.733 66.4 228.373 53.68 228.373 40.16ZM200.853 61.12C187.733 61.12 182.213 51.44 182.213 40.16C182.213 28.8 187.733 19.2 200.853 19.2C213.893 19.2 219.493 28.8 219.493 40.16C219.493 51.44 213.893 61.12 200.853 61.12Z" fill="#14B6F1"/>
</svg>
